<svg width="46" height="46" viewBox="0 0 46 46" fill="none" xmlns="http://www.w3.org/2000/svg">
<path d="M14.1833 41.4H31.8167L34.3722 32.2H11.6278L14.1833 41.4ZM14.1833 46C12.9907 46 11.9472 45.6742 11.0528 45.0225C10.1583 44.3708 9.56204 43.5275 9.26389 42.4925L6.38889 32.2H39.6111L36.7361 42.4925C36.438 43.5275 35.8417 44.3708 34.9472 45.0225C34.0528 45.6742 33.0093 46 31.8167 46H14.1833ZM5.11111 27.6H40.8889V23H5.11111V27.6ZM23 13.8C23 9.96667 24.4907 6.70833 27.4722 4.025C30.4537 1.34167 34.0741 0 38.3333 0C38.3333 3.45 37.1194 6.44 34.6917 8.97C32.2639 11.5 29.2185 13.0333 25.5556 13.57V18.4H46V27.6C46 28.865 45.4995 29.9479 44.4986 30.8487C43.4977 31.7496 42.2944 32.2 40.8889 32.2H5.11111C3.70556 32.2 2.50231 31.7496 1.50139 30.8487C0.500463 29.9479 0 28.865 0 27.6V18.4H20.4444V13.57C16.7815 13.0333 13.7361 11.5 11.3083 8.97C8.88056 6.44 7.66667 3.45 7.66667 0C11.9259 0 15.5463 1.34167 18.5278 4.025C21.5093 6.70833 23 9.96667 23 13.8Z" fill="#3199FF"/>
</svg>
