<svg width="46" height="46" viewBox="0 0 46 46" fill="none" xmlns="http://www.w3.org/2000/svg">
<path d="M31.05 20.7C32.0083 20.7 32.8229 20.3646 33.4937 19.6938C34.1646 19.0229 34.5 18.2083 34.5 17.25C34.5 16.2917 34.1646 15.4771 33.4937 14.8062C32.8229 14.1354 32.0083 13.8 31.05 13.8C30.0917 13.8 29.2771 14.1354 28.6062 14.8062C27.9354 15.4771 27.6 16.2917 27.6 17.25C27.6 18.2083 27.9354 19.0229 28.6062 19.6938C29.2771 20.3646 30.0917 20.7 31.05 20.7ZM14.95 20.7C15.9083 20.7 16.7229 20.3646 17.3937 19.6938C18.0646 19.0229 18.4 18.2083 18.4 17.25C18.4 16.2917 18.0646 15.4771 17.3937 14.8062C16.7229 14.1354 15.9083 13.8 14.95 13.8C13.9917 13.8 13.1771 14.1354 12.5062 14.8062C11.8354 15.4771 11.5 16.2917 11.5 17.25C11.5 18.2083 11.8354 19.0229 12.5062 19.6938C13.1771 20.3646 13.9917 20.7 14.95 20.7ZM23 26.45C20.3933 26.45 18.0262 27.1879 15.8987 28.6637C13.7712 30.1396 12.2283 32.085 11.27 34.5H15.065C15.9083 33.0817 17.0296 31.9604 18.4287 31.1362C19.8279 30.3121 21.3517 29.9 23 29.9C24.6483 29.9 26.1721 30.3121 27.5713 31.1362C28.9704 31.9604 30.0917 33.0817 30.935 34.5H34.73C33.7717 32.085 32.2288 30.1396 30.1012 28.6637C27.9737 27.1879 25.6067 26.45 23 26.45ZM23 46C19.8183 46 16.8283 45.3963 14.03 44.1888C11.2317 42.9813 8.7975 41.3425 6.7275 39.2725C4.6575 37.2025 3.01875 34.7683 1.81125 31.97C0.60375 29.1717 0 26.1817 0 23C0 19.8183 0.60375 16.8283 1.81125 14.03C3.01875 11.2317 4.6575 8.7975 6.7275 6.7275C8.7975 4.6575 11.2317 3.01875 14.03 1.81125C16.8283 0.60375 19.8183 0 23 0C26.1817 0 29.1717 0.60375 31.97 1.81125C34.7683 3.01875 37.2025 4.6575 39.2725 6.7275C41.3425 8.7975 42.9813 11.2317 44.1888 14.03C45.3963 16.8283 46 19.8183 46 23C46 26.1817 45.3963 29.1717 44.1888 31.97C42.9813 34.7683 41.3425 37.2025 39.2725 39.2725C37.2025 41.3425 34.7683 42.9813 31.97 44.1888C29.1717 45.3963 26.1817 46 23 46ZM23 41.4C28.1367 41.4 32.4875 39.6175 36.0525 36.0525C39.6175 32.4875 41.4 28.1367 41.4 23C41.4 17.8633 39.6175 13.5125 36.0525 9.9475C32.4875 6.3825 28.1367 4.6 23 4.6C17.8633 4.6 13.5125 6.3825 9.9475 9.9475C6.3825 13.5125 4.6 17.8633 4.6 23C4.6 28.1367 6.3825 32.4875 9.9475 36.0525C13.5125 39.6175 17.8633 41.4 23 41.4Z" fill="#3199FF"/>
</svg>
