<svg width="46" height="46" viewBox="0 0 46 46" fill="none" xmlns="http://www.w3.org/2000/svg">
<path d="M5.75 21.7895C4.14 21.7895 2.77917 21.2044 1.6675 20.0342C0.555833 18.864 0 17.4316 0 15.7368C0 14.0421 0.555833 12.6096 1.6675 11.4395C2.77917 10.2693 4.14 9.68421 5.75 9.68421C7.36 9.68421 8.72083 10.2693 9.8325 11.4395C10.9442 12.6096 11.5 14.0421 11.5 15.7368C11.5 17.4316 10.9442 18.864 9.8325 20.0342C8.72083 21.2044 7.36 21.7895 5.75 21.7895ZM16.1 12.1053C14.49 12.1053 13.1292 11.5202 12.0175 10.35C10.9058 9.17982 10.35 7.74737 10.35 6.05263C10.35 4.3579 10.9058 2.92544 12.0175 1.75526C13.1292 0.585088 14.49 0 16.1 0C17.71 0 19.0708 0.585088 20.1825 1.75526C21.2942 2.92544 21.85 4.3579 21.85 6.05263C21.85 7.74737 21.2942 9.17982 20.1825 10.35C19.0708 11.5202 17.71 12.1053 16.1 12.1053ZM29.9 12.1053C28.29 12.1053 26.9292 11.5202 25.8175 10.35C24.7058 9.17982 24.15 7.74737 24.15 6.05263C24.15 4.3579 24.7058 2.92544 25.8175 1.75526C26.9292 0.585088 28.29 0 29.9 0C31.51 0 32.8708 0.585088 33.9825 1.75526C35.0942 2.92544 35.65 4.3579 35.65 6.05263C35.65 7.74737 35.0942 9.17982 33.9825 10.35C32.8708 11.5202 31.51 12.1053 29.9 12.1053ZM40.25 21.7895C38.64 21.7895 37.2792 21.2044 36.1675 20.0342C35.0558 18.864 34.5 17.4316 34.5 15.7368C34.5 14.0421 35.0558 12.6096 36.1675 11.4395C37.2792 10.2693 38.64 9.68421 40.25 9.68421C41.86 9.68421 43.2208 10.2693 44.3325 11.4395C45.4442 12.6096 46 14.0421 46 15.7368C46 17.4316 45.4442 18.864 44.3325 20.0342C43.2208 21.2044 41.86 21.7895 40.25 21.7895ZM10.695 46C8.97 46 7.52292 45.3039 6.35375 43.9118C5.18458 42.5197 4.6 40.8754 4.6 38.9789C4.6 36.8807 5.28042 35.0447 6.64125 33.4711C8.00208 31.8974 9.35333 30.3439 10.695 28.8105C11.8067 27.5597 12.765 26.1978 13.57 24.725C14.375 23.2522 15.3333 21.8702 16.445 20.5789C17.2883 19.5298 18.2658 18.6623 19.3775 17.9763C20.4892 17.2904 21.6967 16.9474 23 16.9474C24.3033 16.9474 25.5108 17.2702 26.6225 17.9158C27.7342 18.5614 28.7117 19.4088 29.555 20.4579C30.6283 21.7491 31.5771 23.1412 32.4012 24.6342C33.2254 26.1272 34.1933 27.5193 35.305 28.8105C36.6467 30.3439 37.9979 31.8974 39.3587 33.4711C40.7196 35.0447 41.4 36.8807 41.4 38.9789C41.4 40.8754 40.8154 42.5197 39.6463 43.9118C38.4771 45.3039 37.03 46 35.305 46C33.235 46 31.1842 45.8184 29.1525 45.4553C27.1208 45.0921 25.07 44.9105 23 44.9105C20.93 44.9105 18.8792 45.0921 16.8475 45.4553C14.8158 45.8184 12.765 46 10.695 46Z" fill="#3199FF"/>
</svg>
